HIERARCHY
ROOT pelvis
{
  OFFSET 0 100 0
  CHANNELS 6 Xposition Yposition Zposition Zrotation Xrotation Yrotation
  JOINT pelvis_right_femur
  {
    OFFSET -10.78128 -3.44521 -0.5502486
    CHANNELS 3 Zrotation Xrotation Yrotation
    JOINT right_femur_tibia
    {
      OFFSET -0.8047443 -44.0398 -0.1307829
      CHANNELS 3 Zrotation Xrotation Yrotation
      JOINT right_tibia_foot
      {
        OFFSET 3.006224 -47.83518 -5
        CHANNELS 3 Zrotation Xrotation Yrotation
        End Site
        {
          OFFSET 0 -5 15
        }
      }
    }
  }
  JOINT pelvis_left_femur
  {
    OFFSET 10.78128 -3.44521 -0.5502486
    CHANNELS 3 Zrotation Xrotation Yrotation
    JOINT left_femur_tibia
    {
      OFFSET 0.8047443 -44.0398 -0.1307829
      CHANNELS 3 Zrotation Xrotation Yrotation
      JOINT left_tibia_foot
      {
        OFFSET -4.370144 -48.10324 -4.275266
        CHANNELS 3 Zrotation Xrotation Yrotation
        End Site
        {
          OFFSET 0 -5 15
        }
      }
    }
  }
  JOINT pelvis_spine1
  {
    OFFSET 0 6.468898 -3.129235
    CHANNELS 3 Zrotation Xrotation Yrotation
    JOINT spine1
    {
      OFFSET 0 23.15396 4.99043
      CHANNELS 3 Zrotation Xrotation Yrotation
      JOINT spine2
      {
        OFFSET 0 20.79997 -5.064912
        CHANNELS 3 Zrotation Xrotation Yrotation
        JOINT neck
        {
          OFFSET 0 14.38658 9.616178
          CHANNELS 3 Zrotation Xrotation Yrotation
          End Site
          {
            OFFSET 0 20 0
          }
        }
      }
      JOINT right_manubrium
      {
        OFFSET -5.722621 16.35077 3.967754
        CHANNELS 3 Zrotation Xrotation Yrotation
        JOINT right_clavicle
        {
          OFFSET -13.16364 1.694482 -4.693211
          CHANNELS 3 Zrotation Xrotation Yrotation
          JOINT right_humerus
          {
            OFFSET -28.5034 -0.3100689 -2.792744
            CHANNELS 3 Zrotation Xrotation Yrotation
            JOINT right_radius
            {
              OFFSET -25.15693 0.02248979 -1.271978
              CHANNELS 3 Zrotation Xrotation Yrotation
              End Site
              {
                OFFSET -15 0 0
              }
            }
          }
        }
      }
      JOINT left_manubrium
      {
        OFFSET 5.722621 16.35077 3.967754
        CHANNELS 3 Zrotation Xrotation Yrotation
        JOINT left_clavicle
        {
          OFFSET 13.16364 1.694482 -4.693211
          CHANNELS 3 Zrotation Xrotation Yrotation
          JOINT left_humerus
          {
            OFFSET 29.39168 -1.063119 -2.237045
            CHANNELS 3 Zrotation Xrotation Yrotation
            JOINT left_radius
            {
              OFFSET 24.59957 -0.9528479 0.9047498
              CHANNELS 3 Zrotation Xrotation Yrotation
              End Site
              {
                OFFSET 15 -0 -0
              }
            }
          }
        }
      }
    }
  }
}
MOTION
Frames: 11
Frame Time: 0.0416666666667
1976.077 105.5253 2070.778 7.44865 1.095154 89.90655 -0.2893437 -19.65556 1.839121 -0 34.8768 -0 2.104437 -5.045697 -8.930975 -5.135792 11.41857 -8.933068 -0 14.08048 -0 -4.537144 -18.17659 14.60611 -2.586071 0.9832982 2.581599 0.1949248 8.932857 -7.180062 1.830764 22.74237 7.127 1.606931 -15.84785 9.58086 1.7131 -14.46354 9.681877 89.789 27.86169 -18.47396 -0 0 12.25515 -24.66236 16.47387 12.13052 5.809396 -19.81709 -4.693581 -81.8091 23.24164 5.542037 0 0 -22.03428 1.565102 7.997077 10.92827
1981.997 104.3358 2070.759 7.097724 1.360501 90.65239 -0.4897373 -23.36308 1.212581 -0 25.38792 -0 1.367752 -5.410201 -9.484551 -5.156152 14.98982 -9.009807 -0 13.85792 -0 -4.609674 -19.83181 14.40948 -2.745577 0.93907 2.235458 0.4799597 8.577397 -7.537477 2.18518 22.75466 6.815008 1.688527 -15.80695 9.540997 1.018469 -13.67095 9.388616 91.01016 27.3622 -20.24483 -0 0 10.49011 -23.84061 16.29236 11.21386 6.579803 -20.86896 -4.863488 -80.42903 23.29004 2.381333 0 0 -24.95643 2.109234 8.53708 10.03291
1988.247 102.8607 2070.88 6.586087 1.632538 91.25569 -0.4929817 -25.71956 0.7318166 -0 17.28838 -0 1.038749 -4.948179 -9.757294 -5.160567 17.84546 -8.934787 -0 15.06056 -0 -5.158615 -20.8442 13.92377 -2.871943 0.724795 2.087821 0.6615602 8.272012 -7.704969 2.49521 22.61201 6.495091 1.859595 -15.95792 9.371551 0.6764978 -12.95693 9.214821 91.90551 26.98839 -21.73626 -0 0 8.869087 -22.97704 16.23145 10.20715 7.277575 -21.70726 -4.8888 -79.51962 23.21607 0.1958294 0 0 -27.22863 2.709767 9.082373 9.183669
1994.926 101.479 2071.108 6.039992 1.619555 91.74484 0.1259274 -26.37884 0.7627168 -0 12.5919 -0 1.122924 -3.95137 -9.690561 -4.947108 19.70884 -8.599829 -0 18.08537 -0 -6.026366 -20.39222 13.21681 -2.727081 0.3616261 1.976375 0.8696567 8.187568 -7.837978 2.568423 22.32759 6.269395 2.007594 -16.40202 9.078835 0.7949193 -12.49921 9.280158 92.3861 26.83094 -22.80343 -0 0 7.547681 -22.15651 16.27401 9.350753 7.637034 -22.18341 -4.766111 -79.27594 22.73013 -0.5728904 0 0 -28.21777 3.468225 9.328193 8.20706
2001.993 100.542 2071.421 5.979866 1.209268 92.07071 1.506088 -25.12029 1.657873 -0 12.19348 -0 1.142933 -3.639549 -9.58376 -4.451522 20.56809 -8.287751 -0 23.64714 -0 -6.919556 -18.29851 12.87823 -2.212721 0.002976184 1.771638 1.138443 8.253334 -7.899555 2.536256 22.19693 5.978597 1.911328 -16.92102 8.808383 1.033162 -12.26114 9.39731 92.54476 26.36361 -23.18571 -0 0 6.54346 -20.97025 16.00033 8.5473 7.432792 -22.00078 -4.487673 -79.66453 22.25774 -0.2306947 0 0 -27.5348 4.12141 9.260595 7.349874
2009.258 100.2705 2071.811 6.696819 0.6691892 92.15124 3.142869 -21.97192 3.155503 -0 14.86076 -0 0.6620581 -4.666831 -9.598604 -3.873141 20.16558 -8.297494 -0 31.79835 -0 -7.765765 -15.31625 13.30503 -1.55489 -0.1429851 1.608642 1.348918 8.295261 -7.695738 2.620159 22.48071 5.51298 1.607419 -17.18217 8.645378 1.134933 -12.09437 9.366253 92.43733 25.43987 -22.76919 -0 0 5.858622 -19.20866 15.14381 7.60016 6.763796 -21.1395 -4.088409 -80.56703 22.47632 0.7240362 0 0 -25.41917 4.322109 9.199628 7.002579
2016.47 100.7036 2072.245 7.779761 0.3011245 91.94987 4.408663 -17.47488 4.580031 -0 18.08646 -0 -0.1962689 -6.268442 -9.495423 -3.434205 17.90224 -8.457455 -0 40.94278 -0 -8.56964 -12.33764 14.24762 -1.024716 -0.02123579 1.791004 1.399402 8.385389 -7.207561 2.769305 23.00822 5.060916 1.414153 -17.16289 8.472334 1.241806 -12.12649 9.332517 92.02042 24.64826 -21.84165 -0 0 5.708633 -17.5268 14.02085 6.768599 5.985504 -20.08258 -3.703094 -81.97112 23.34617 2.41642 0 0 -22.75384 3.959182 9.22197 7.401286
2023.415 101.6782 2072.682 8.712436 0.1832965 91.49223 5.088426 -12.43772 5.566583 -0 20.14726 -0 -1.124887 -7.723826 -9.059228 -3.183717 13.6328 -8.460215 -0 49.10271 -0 -9.221893 -9.909905 15.29747 -0.7232702 0.3101877 2.446252 1.283979 8.618788 -6.557268 2.863251 23.50005 4.782862 1.486157 -17.03447 8.202941 1.459362 -12.53109 9.457839 91.26026 24.37005 -20.68038 -0 0 6.288157 -16.51757 13.01035 6.350586 5.356624 -19.24102 -3.408989 -83.7929 24.41537 4.949517 0 0 -20.30139 3.19587 9.184158 8.449696
2029.978 102.8769 2073.088 9.403095 0.29228 90.84009 5.228158 -7.24689 6.061807 -0 20.61138 -0 -1.873691 -9.022091 -8.307999 -3.009755 7.71835 -8.153065 -0 54.77391 -0 -9.618866 -8.322639 16.30948 -0.6488978 0.8064935 3.466326 1.006817 8.925058 -5.792304 2.894792 23.87993 4.656951 1.727414 -16.85969 7.879896 1.645869 -13.31368 9.720937 90.16043 24.38701 -19.20582 -0 0 7.651554 -16.35691 12.24564 6.404507 4.966586 -18.64098 -3.212811 -85.82274 25.31081 7.98508 0 0 -18.23204 2.289192 9.041615 9.754179
2036.163 103.9321 2073.431 9.931809 0.5526151 90.07006 4.9756 -1.956236 6.131472 -0 19.67564 -0 -2.235445 -10.38963 -7.34378 -2.707087 0.6946246 -7.462405 -0 56.6961 -0 -9.711217 -7.660035 17.29239 -0.7394173 1.399579 4.650929 0.5828839 9.184454 -4.934975 2.883816 24.14101 4.603598 1.980407 -16.63821 7.55558 1.603738 -14.44957 10.03988 88.74464 24.26974 -17.22292 -0 0 9.819274 -17.05776 11.71605 6.926601 4.82668 -18.13671 -3.102142 -87.82847 25.80416 11.12501 0 0 -16.44518 1.393914 8.776782 10.96726
2042.089 104.5224 2073.669 10.25747 0.8243265 89.25915 4.538452 3.364059 5.901613 -0 17.81925 -0 -2.103227 -12.00638 -6.254176 -2.067263 -6.795591 -6.36294 -0 53.99319 -0 -9.47542 -7.751505 18.24085 -0.8798962 1.947076 5.796588 0.0775711 9.309054 -4.071764 2.816271 24.23067 4.5619 2.121136 -16.4286 7.239478 1.223699 -15.94373 10.3358 87.09682 23.71599 -14.69876 -0 0 12.75377 -18.48736 11.31056 7.928621 4.897338 -17.58133 -3.032668 -89.63496 25.81754 14.17307 0 0 -14.85288 0.5406132 8.300907 11.97994
